<svg version="1.1" xmlns="http://www.w3.org/2000/svg" viewBox="0 0 909.782958984375 650.7321014404297" width="909.782958984375" height="650.7321014404297">
  <!-- svg-source:excalidraw -->
  
  <defs>
    <style>
      @font-face {
        font-family: "Virgil";
        src: url("https://excalidraw.com/Virgil.woff2");
      }
      @font-face {
        font-family: "Cascadia";
        src: url("https://excalidraw.com/Cascadia.woff2");
      }
    </style>
  </defs>
  <rect x="0" y="0" width="909.782958984375" height="650.7321014404297" fill="#ffffff"></rect><g stroke-linecap="round" transform="translate(10 10) rotate(0 444.8914794921875 315.36605072021484)"><path d="M157.68 0 M157.68 0 C365.1 1.8, 572.61 2.14, 732.1 0 M157.68 0 C365.99 -0.09, 573.88 -0.63, 732.1 0 M732.1 0 C838.94 0.28, 887.9 53.26, 889.78 157.68 M732.1 0 C835.94 -2.11, 890.62 53.69, 889.78 157.68 M889.78 157.68 C888.74 226.36, 889.73 295.02, 889.78 473.05 M889.78 157.68 C890.64 232.11, 891.06 307.26, 889.78 473.05 M889.78 473.05 C890.76 577.02, 837.69 630.06, 732.1 630.73 M889.78 473.05 C890.34 580.24, 835.19 629.85, 732.1 630.73 M732.1 630.73 C516.18 628.86, 302.19 628.95, 157.68 630.73 M732.1 630.73 C615.62 628.83, 498.97 629.12, 157.68 630.73 M157.68 630.73 C53.38 630.07, -1.24 577.98, 0 473.05 M157.68 630.73 C53.78 629.1, 0.31 578.73, 0 473.05 M0 473.05 C0.7 376.31, 1.11 279.81, 0 157.68 M0 473.05 C2.3 385.46, 1.5 299.1, 0 157.68 M0 157.68 C1.91 52.15, 52.62 1.26, 157.68 0 M0 157.68 C1.91 51.8, 54.31 1.85, 157.68 0" stroke="#e67700" stroke-width="2" fill="none"></path></g><g transform="translate(390.5308837890625 20.13513946533203) rotate(0 48.5 17.5)"><text x="0" y="25" font-family="Virgil, Segoe UI Emoji" font-size="28px" fill="#e67700" text-anchor="start" style="white-space: pre;" direction="ltr">Built-in</text></g><g stroke-linecap="round" transform="translate(55.8568115234375 122.63072967529297) rotate(0 165.32583618164062 243.3628692626953)"><path d="M82.66 0 M82.66 0 C123.2 1.21, 162.35 -0.82, 247.99 0 M82.66 0 C121.13 -0.43, 159.44 0.76, 247.99 0 M247.99 0 C304.76 1.54, 330.2 27.58, 330.65 82.66 M247.99 0 C303.68 -1.18, 329.38 26.15, 330.65 82.66 M330.65 82.66 C330.06 180.37, 331.87 279.18, 330.65 404.06 M330.65 82.66 C330.91 202.34, 330.25 323.52, 330.65 404.06 M330.65 404.06 C330.72 459.46, 304.56 488.19, 247.99 486.73 M330.65 404.06 C332.25 460.5, 300.82 486.44, 247.99 486.73 M247.99 486.73 C180.76 487.4, 116.79 486.18, 82.66 486.73 M247.99 486.73 C202.46 487.74, 158.75 487.43, 82.66 486.73 M82.66 486.73 C28.46 487.41, 1.41 460.38, 0 404.06 M82.66 486.73 C29.47 487.26, -1.37 461.11, 0 404.06 M0 404.06 C-1.11 310.18, -3.31 218.36, 0 82.66 M0 404.06 C0.68 282.59, 0.06 160.76, 0 82.66 M0 82.66 C1.09 26.71, 27.27 1.57, 82.66 0 M0 82.66 C-0.61 28.38, 27.07 1.8, 82.66 0" stroke="#2b8a3e" stroke-width="2" fill="none"></path></g><g stroke-linecap="round" transform="translate(528.9548034667969 119.72481536865234) rotate(0 165.32583618164062 243.3628692626953)"><path d="M82.66 0 M82.66 0 C121.82 -0.29, 162.06 2.05, 247.99 0 M82.66 0 C118.31 1.35, 154.75 1.44, 247.99 0 M247.99 0 C303.32 -1.23, 330 28.35, 330.65 82.66 M247.99 0 C302.27 1.33, 332.72 29.36, 330.65 82.66 M330.65 82.66 C333.3 151.39, 333.11 217.74, 330.65 404.06 M330.65 82.66 C330.11 205.45, 330.16 328.81, 330.65 404.06 M330.65 404.06 C332 460.37, 302.9 485.7, 247.99 486.73 M330.65 404.06 C332.54 457.15, 303.09 488.11, 247.99 486.73 M247.99 486.73 C209.7 488.88, 167.98 487.79, 82.66 486.73 M247.99 486.73 C203.37 488.01, 157.29 487.29, 82.66 486.73 M82.66 486.73 C28.6 487.15, 1.45 457.48, 0 404.06 M82.66 486.73 C27.69 487.31, 0.72 459.85, 0 404.06 M0 404.06 C-0.28 328.03, 0 249.94, 0 82.66 M0 404.06 C0.27 337.69, -0.43 272.3, 0 82.66 M0 82.66 C-0.79 27.67, 26.7 0.86, 82.66 0 M0 82.66 C-1.31 27.59, 26.99 1.64, 82.66 0" stroke="#2b8a3e" stroke-width="2" fill="none"></path></g><g transform="translate(172.510009765625 132.65686798095703) rotate(0 43 17.5)"><text x="0" y="25" font-family="Virgil, Segoe UI Emoji" font-size="28px" fill="#5c940d" text-anchor="start" style="white-space: pre;" direction="ltr">Global</text></g><g transform="translate(662.7619018554688 130.82909393310547) rotate(0 43 17.5)"><text x="0" y="25" font-family="Virgil, Segoe UI Emoji" font-size="28px" fill="#5c940d" text-anchor="start" style="white-space: pre;" direction="ltr">Global</text></g><g stroke-linecap="round" transform="translate(104.126953125 245.72008514404297) rotate(0 114.23974609375 162.9123077392578)"><path d="M57.12 0 M57.12 0 C83.48 -1.08, 111.09 1.92, 171.36 0 M57.12 0 C94.59 0.28, 132.02 0.35, 171.36 0 M171.36 0 C208.19 1.42, 227.47 20.29, 228.48 57.12 M171.36 0 C207.54 0.58, 229.3 19.06, 228.48 57.12 M228.48 57.12 C228.42 114.48, 230.09 172.99, 228.48 268.7 M228.48 57.12 C227.76 119.64, 227.48 181.95, 228.48 268.7 M228.48 268.7 C226.79 305.07, 208.18 324.19, 171.36 325.82 M228.48 268.7 C228.88 306.19, 208.69 327.32, 171.36 325.82 M171.36 325.82 C148.34 324.41, 124.9 327.13, 57.12 325.82 M171.36 325.82 C139.43 326.35, 107.48 326.52, 57.12 325.82 M57.12 325.82 C20.37 325.2, -0.89 306.81, 0 268.7 M57.12 325.82 C17.2 323.63, -1.57 305.87, 0 268.7 M0 268.7 C-0.71 226.34, -0.66 182.17, 0 57.12 M0 268.7 C-0.77 190.99, -0.62 114.98, 0 57.12 M0 57.12 C0.57 19.54, 19.16 0.46, 57.12 0 M0 57.12 C-0.67 18.31, 19.05 -0.07, 57.12 0" stroke="#364fc7" stroke-width="2" fill="none"></path></g><g stroke-linecap="round" transform="translate(587.6049194335938 251.69425201416016) rotate(0 114.23974609375 162.9123077392578)"><path d="M57.12 0 M57.12 0 C97.2 2, 139.54 0.9, 171.36 0 M57.12 0 C81.33 0.43, 107.43 0.63, 171.36 0 M171.36 0 C209.33 -0.24, 229.87 17.89, 228.48 57.12 M171.36 0 C207.4 -0.99, 228.98 20.18, 228.48 57.12 M228.48 57.12 C228.04 117.13, 227.15 179.13, 228.48 268.7 M228.48 57.12 C228.83 138.79, 228.44 221.67, 228.48 268.7 M228.48 268.7 C229.68 306.48, 209.96 327.49, 171.36 325.82 M228.48 268.7 C226.39 305.88, 207.49 324.02, 171.36 325.82 M171.36 325.82 C136.07 322.87, 102.4 326.26, 57.12 325.82 M171.36 325.82 C146.26 326.7, 123.36 324.84, 57.12 325.82 M57.12 325.82 C20.16 327.59, 0.71 305.84, 0 268.7 M57.12 325.82 C19.24 325.48, 0.96 304.95, 0 268.7 M0 268.7 C0.44 199.34, 0.31 132.66, 0 57.12 M0 268.7 C1.01 225.7, 2.52 182.79, 0 57.12 M0 57.12 C1.17 17.69, 18.19 1.32, 57.12 0 M0 57.12 C-0.65 19.24, 18.67 1.59, 57.12 0" stroke="#364fc7" stroke-width="2" fill="none"></path></g><g transform="translate(177.33697509765625 260.57323455810547) rotate(0 36.5 17.5)"><text x="0" y="25" font-family="Virgil, Segoe UI Emoji" font-size="28px" fill="#364fc7" text-anchor="start" style="white-space: pre;" direction="ltr">Local</text></g><g transform="translate(666.0364990234375 262.64156341552734) rotate(0 36.5 17.5)"><text x="0" y="25" font-family="Virgil, Segoe UI Emoji" font-size="28px" fill="#364fc7" text-anchor="start" style="white-space: pre;" direction="ltr">Local</text></g><g transform="translate(656.017822265625 72.31897735595703) rotate(0 47 17.5)"><text x="0" y="25" font-family="Virgil, Segoe UI Emoji" font-size="28px" fill="#c92a2a" text-anchor="start" style="white-space: pre;" direction="ltr">original</text></g><g transform="translate(126.65316772460938 78.75501251220703) rotate(0 93 17.5)"><text x="0" y="25" font-family="Virgil, Segoe UI Emoji" font-size="28px" fill="#c92a2a" text-anchor="start" style="white-space: pre;" direction="ltr">import socket</text></g></svg>